# xmcd
#
# Track frame offsets:
#	150
#	12612
#	29455
#	38737
#	51710
#	64170
#	79710
#	91847
#	104165
#	120097
#
# Disc length: 1767 seconds
#
# Revision: 0
# Processed by: cddbd v1.5PL3 Copyright (c) Steve Scherf et al.
# Submitted via: dBpowerAMP V4.0
#
DISCID=8206e50a
DTITLE=Bob Bates - Make Something Of It
DYEAR=1900
DGENRE=Country
TTITLE0=Where's My Answer
TTITLE1=Slip Of The Heart
TTITLE2=Can't Shake The Memory
TTITLE3=Tired Of Losing
TTITLE4=You Ain't Down Home
TTITLE5=Nothing Rhymes With Love
TTITLE6=Silver And Gold
TTITLE7=Make Something Of It
TTITLE8=Sleaping Beauty
TTITLE9=Hard Times Come Easy To Me
EXTD=
EXTT0=
EXTT1=
EXTT2=
EXTT3=
EXTT4=
EXTT5=
EXTT6=
EXTT7=
EXTT8=
EXTT9=
PLAYORDER=
